<?xml version="1.0" ?><svg data-name="Layer 1" id="Layer_1" viewBox="0 0 64 64" xmlns="http://www.w3.org/2000/svg"><defs><style>.cls-1{fill:#edb798;}.cls-2{fill:#ffbc5c;}.cls-3{fill:#dea17e;}.cls-4{fill:#f3f0f3;}.cls-5{fill:#fce2c0;}.cls-6{fill:#f2ca9d;}.cls-7{fill:#918291;}</style></defs><path class="cls-1" d="M51.376,36.813a21.958,21.958,0,1,0-38.7.109c-.063-.023-.121-.047-.185-.07a19,19,0,0,0,.874,19.787h.01a18.978,18.978,0,0,0,4.389-1.11,19.006,19.006,0,0,0,28.472,0,18.978,18.978,0,0,0,4.389,1.11h.01a19,19,0,0,0,.874-19.787C51.463,36.837,51.421,36.828,51.376,36.813Z"/><path class="cls-2" d="M36.841,30.377,32,35.218l-4.841-4.841A8.2,8.2,0,0,0,32,22.883,8.2,8.2,0,0,0,36.841,30.377Z"/><path class="cls-3" d="M17.61,26.481A21.95,21.95,0,0,1,35.786,4.868a21.961,21.961,0,1,0,0,43.226A21.951,21.951,0,0,1,17.61,26.481Z"/><path class="cls-2" d="M55.641.27s0,7.8-7.39,11.255a16.37,16.37,0,0,1-3.783,1.213,24.189,24.189,0,0,0-6.65,2.282c-.01,0-.021.01-.041.01a19.089,19.089,0,0,0-4.1,2.878A10.762,10.762,0,0,0,32,19.8c0-8.748,6.393-11.317,11.471-12.2.3-.052.586-.093.864-.134C51.53,6.437,55.641.27,55.641.27Z"/><path class="cls-2" d="M32,19.8a10.762,10.762,0,0,0-1.675-1.892,19.089,19.089,0,0,0-4.1-2.878c-.02,0-.031-.01-.041-.01a24.189,24.189,0,0,0-6.65-2.282,16.37,16.37,0,0,1-3.783-1.213C8.359,8.072,8.359.27,8.359.27s4.111,6.167,11.306,7.2c.278.041.566.082.864.134C25.607,8.483,32,11.052,32,19.8Z"/><circle class="cls-4" cx="40.137" cy="22.883" r="8.38"/><circle class="cls-4" cx="23.863" cy="22.883" r="8.38"/><path class="cls-5" d="M46.236,55.524A18.923,18.923,0,0,1,32,61.938a18.463,18.463,0,0,1-2.148-.123,18.908,18.908,0,0,1-12.088-6.291,18.957,18.957,0,0,0,9.2-7.534,21.041,21.041,0,0,0,4.79.576,2.049,2.049,0,0,0,.247.01,21.364,21.364,0,0,0,5.037-.586A18.957,18.957,0,0,0,46.236,55.524Z"/><path class="cls-6" d="M29.852,61.815a18.908,18.908,0,0,1-12.088-6.291,18.957,18.957,0,0,0,9.2-7.534,21.041,21.041,0,0,0,4.79.576C28.526,51.546,25.288,57.4,29.852,61.815Z"/><path class="cls-7" d="M43.307,23.912a1.028,1.028,0,0,1-1.028-1.028,2.056,2.056,0,0,0-4.112,0,1.028,1.028,0,1,1-2.055,0,4.112,4.112,0,1,1,8.223,0A1.028,1.028,0,0,1,43.307,23.912Z"/><path class="cls-7" d="M26.861,23.912a1.027,1.027,0,0,1-1.028-1.028,2.056,2.056,0,1,0-4.112,0,1.028,1.028,0,1,1-2.056,0,4.112,4.112,0,1,1,8.223,0A1.027,1.027,0,0,1,26.861,23.912Z"/><path class="cls-7" d="M45.907,64a1.029,1.029,0,0,1-.3-.045,47.026,47.026,0,0,0-27.21,0,1.028,1.028,0,0,1-.605-1.966,49.1,49.1,0,0,1,28.42,0,1.028,1.028,0,0,1-.3,2.011Z"/></svg>