<?xml version="1.0" ?><svg viewBox="0 0 64 64" xmlns="http://www.w3.org/2000/svg"><title/><g data-name="72-woman" id="_72-woman"><path d="M18,39.96l8.33-1.68a1.918,1.918,0,0,0,.67-.24c.01.49.27,4.96,5,4.96s4.99-4.47,5-4.96a1.918,1.918,0,0,0,.67.24L46,39.96l1.82.37A3.994,3.994,0,0,1,51,44.25V57H45v6H19V57H13V44.25a3.994,3.994,0,0,1,3.18-3.92Z" style="fill:#ff7045"/><path d="M47.82,40.33,46,39.96l-8.33-1.68a1.918,1.918,0,0,1-.67-.24c-.01.49-.27,4.96-5,4.96s-4.99-4.47-5-4.96a1.918,1.918,0,0,1-.67.24L18,39.96l-1.82.37A3.994,3.994,0,0,0,13,44.25v4a3.994,3.994,0,0,1,3.18-3.92L18,43.96l8.33-1.68a1.918,1.918,0,0,0,.67-.24c.01.49.27,4.96,5,4.96s4.99-4.47,5-4.96a1.918,1.918,0,0,0,.67.24L46,43.96l1.82.37A3.994,3.994,0,0,1,51,48.25v-4A3.994,3.994,0,0,0,47.82,40.33Z" style="fill:#f92814"/><path d="M46.39,21.16A44.1,44.1,0,0,1,46,15a14,14,0,0,0-28,0,44.1,44.1,0,0,1-.39,6.16C17.03,25.36,16,27.41,16,31c0,4.97,1.97,6.97,2,8.96l8.33-1.68a1.918,1.918,0,0,0,.67-.24,1.976,1.976,0,0,0,1-1.73V33l.03-.06a7.838,7.838,0,0,1-1.69-1.28A8.014,8.014,0,0,1,24,26l-.09-1H23a3,3,0,0,1-3-3,3.078,3.078,0,0,1,.06-.61A3,3,0,0,1,23,19h.36L23,15l-.01-.12a9.329,9.329,0,0,0,5.63-2.44c2.65,2.2,8.05,2.51,12.38,2.55V15l-.36,4H41a3,3,0,0,1,2.94,2.39A3.078,3.078,0,0,1,44,22a3,3,0,0,1-3,3h-.91L40,26a7.974,7.974,0,0,1-4.03,6.94L36,33v3.31a1.976,1.976,0,0,0,1,1.73,1.918,1.918,0,0,0,.67.24L46,39.96c.03-1.99,2-3.99,2-8.96C48,27.41,46.97,25.36,46.39,21.16Z" style="fill:#b25e1e"/><path d="M17.61,24.16A44.1,44.1,0,0,0,18,18a14,14,0,0,1,28,0,44.1,44.1,0,0,0,.39,6.16c.494,3.58,1.311,5.605,1.542,8.346.041-.472.068-.968.068-1.506,0-3.59-1.03-5.64-1.61-9.84A44.1,44.1,0,0,1,46,15a14,14,0,0,0-28,0,44.1,44.1,0,0,1-.39,6.16C17.03,25.36,16,27.41,16,31c0,.538.027,1.034.068,1.506C16.3,29.765,17.116,27.74,17.61,24.16Z" style="fill:#d1813b"/><path d="M21.983,19.619,23.36,19l-.105-1.164c-.091.013-.171.032-.265.044l-1.1.739" style="fill:#d1813b"/><path d="M40,22c0,.1-.01.21-.02.31A2.965,2.965,0,1,1,40,22Z" style="fill:#4a98f7"/><path d="M27,19a3,3,0,1,1-2.98,3.31c-.01-.1-.02-.21-.02-.31A3,3,0,0,1,27,19Z" style="fill:#4a98f7"/><path d="M44,22a3,3,0,0,1-3,3h-.91l.24-2.66L40.64,19H41a3,3,0,0,1,2.94,2.39A3.078,3.078,0,0,1,44,22Z" style="fill:#ffb680"/><path d="M23,25a3,3,0,0,1-3-3,3.078,3.078,0,0,1,.06-.61A3,3,0,0,1,23,19h.36l.31,3.34L23.91,25Z" style="fill:#ffb680"/><path d="M40,22a3,3,0,0,0-6,0H30a3,3,0,0,0-6,0c0,.1.01.21.02.31l-.35.03L23.36,19,23,15l-.01-.12a9.329,9.329,0,0,0,5.63-2.44c2.65,2.2,8.05,2.51,12.38,2.55V15l-.36,4-.31,3.34-.35-.03C39.99,22.21,40,22.1,40,22Z" style="fill:#ffb680"/><rect height="6" style="fill:#ffdaaa" width="6" x="45" y="57"/><rect height="6" style="fill:#ffdaaa" width="6" x="13" y="57"/><path d="M37,38.04c-.01.49-.27,4.96-5,4.96s-4.99-4.47-5-4.96a1.976,1.976,0,0,0,1-1.73V33l.03-.06a7.964,7.964,0,0,0,7.94,0L36,33v3.31A1.976,1.976,0,0,0,37,38.04Z" style="fill:#ffdaaa"/><path d="M32,37a7.954,7.954,0,0,0,3.97-1.06L36,36V33l-.03-.06a7.964,7.964,0,0,1-7.94,0L28,33v3l.03-.06A7.954,7.954,0,0,0,32,37Z" style="fill:#ffb680"/><path d="M36,39.31a1.988,1.988,0,0,0,.386,1.16A6.278,6.278,0,0,0,37,38.04a1.976,1.976,0,0,1-1-1.73Z" style="fill:#ffb680"/><path d="M28,39.31v-3a1.976,1.976,0,0,1-1,1.73,6.278,6.278,0,0,0,.614,2.43A1.988,1.988,0,0,0,28,39.31Z" style="fill:#ffb680"/><path d="M37,25a2.988,2.988,0,0,0,2.98-2.69l.35.03L40.09,25,40,26a7.992,7.992,0,0,1-11.97,6.94,7.838,7.838,0,0,1-1.69-1.28A8.014,8.014,0,0,1,24,26l-.09-1-.24-2.66.35-.03A3,3,0,0,0,30,22h4A3,3,0,0,0,37,25Z" style="fill:#ffdaaa"/><path d="M41,15l-.36,4-.31,3.34L40.09,25,40,26a7.992,7.992,0,0,1-11.97,6.94,7.838,7.838,0,0,1-1.69-1.28A8.014,8.014,0,0,1,24,26l-.09-1-.24-2.66L23.36,19,23,15" style="fill:none;stroke:#000;stroke-linejoin:round;stroke-width:2px"/><path d="M36,33v3.31a1.976,1.976,0,0,0,1,1.73,1.918,1.918,0,0,0,.67.24L46,39.96l1.82.37A3.994,3.994,0,0,1,51,44.25V63H13V44.25a3.994,3.994,0,0,1,3.18-3.92L18,39.96l8.33-1.68a1.918,1.918,0,0,0,.67-.24,1.976,1.976,0,0,0,1-1.73V33" style="fill:none;stroke:#000;stroke-linejoin:round;stroke-width:2px"/><polyline points="19 63 19 57 19 50" style="fill:none;stroke:#000;stroke-linejoin:round;stroke-width:2px"/><polyline points="45 63 45 57 45 50" style="fill:none;stroke:#000;stroke-linejoin:round;stroke-width:2px"/><path d="M18,40v-.04c-.03-1.99-2-3.99-2-8.96,0-3.59,1.03-5.64,1.61-9.84A44.1,44.1,0,0,0,18,15a14,14,0,0,1,28,0,44.1,44.1,0,0,0,.39,6.16C46.97,25.36,48,27.41,48,31c0,4.97-1.97,6.97-2,8.96V40" style="fill:none;stroke:#000;stroke-linejoin:round;stroke-width:2px"/><path d="M24,19H23a3,3,0,0,0-2.94,2.39A3.078,3.078,0,0,0,20,22a3,3,0,0,0,3,3h1" style="fill:none;stroke:#000;stroke-linejoin:round;stroke-width:2px"/><path d="M40,19h1a3,3,0,0,1,2.94,2.39A3.078,3.078,0,0,1,44,22a3,3,0,0,1-3,3H40" style="fill:none;stroke:#000;stroke-linejoin:round;stroke-width:2px"/><path d="M43,15c-.63,0-1.3,0-2-.01-4.33-.04-9.73-.35-12.38-2.55A4.281,4.281,0,0,1,27,9" style="fill:none;stroke:#000;stroke-linejoin:round;stroke-width:2px"/><path d="M29,12a3.267,3.267,0,0,1-.38.44,9.329,9.329,0,0,1-5.63,2.44A15.313,15.313,0,0,1,21,15" style="fill:none;stroke:#000;stroke-linejoin:round;stroke-width:2px"/><path d="M37,38v.04c-.01.49-.27,4.96-5,4.96s-4.99-4.47-5-4.96V38" style="fill:none;stroke:#000;stroke-linejoin:round;stroke-width:2px"/><line style="fill:none;stroke:#000;stroke-linejoin:round;stroke-width:2px" x1="51" x2="45" y1="57" y2="57"/><line style="fill:none;stroke:#000;stroke-linejoin:round;stroke-width:2px" x1="19" x2="13" y1="57" y2="57"/><path d="M30,22a3,3,0,0,0-6,0c0,.1.01.21.02.31A3,3,0,0,0,30,22Z" style="fill:none;stroke:#000;stroke-linejoin:round;stroke-width:2px"/><path d="M39.98,22.31c.01-.1.02-.21.02-.31a3.041,3.041,0,1,0-.02.31Z" style="fill:none;stroke:#000;stroke-linejoin:round;stroke-width:2px"/><line style="fill:none;stroke:#000;stroke-linejoin:round;stroke-width:2px" x1="30" x2="34" y1="22" y2="22"/></g></svg>